<?xml version="1.0" encoding="UTF-8"?>
<svg id="Layer_2" data-name="Layer 2" xmlns="http://www.w3.org/2000/svg" viewBox="0 0 1333.23 174.45">
  <defs>
    <style>
      .cls-1 {
        fill: #fff;
      }

      .cls-2 {
        fill: #f33;
      }

      .cls-3 {
        fill: #0cf;
      }

      .cls-4 {
        fill: #9f008a;
      }
    </style>
  </defs>
  <g id="Layer_1-2" data-name="Layer 1">
    <g id="Full_Logo" data-name="Full Logo">
      <g>
        <g>
          <g>
            <path class="cls-2" d="m30,156.2c-5.87,0-11.07-1.6-15.6-4.8-4.53-3.2-8.07-7.57-10.6-13.1-2.53-5.53-3.8-11.9-3.8-19.1V10c0-2.93.93-5.33,2.8-7.2S7.07,0,10,0s5.33.93,7.2,2.8c1.87,1.87,2.8,4.27,2.8,7.2v109.2c0,4.93.93,9,2.8,12.2,1.87,3.2,4.27,4.8,7.2,4.8h5c2.67,0,4.83.93,6.5,2.8,1.67,1.87,2.5,4.27,2.5,7.2s-1.27,5.33-3.8,7.2c-2.53,1.87-5.8,2.8-9.8,2.8h-.4Z"/>
            <path class="cls-2" d="m110,157.2c-9.2,0-17.43-1.97-24.7-5.9-7.27-3.93-13-9.7-17.2-17.3-4.2-7.6-6.3-16.93-6.3-28v-49.2c0-2.93.97-5.37,2.9-7.3s4.37-2.9,7.3-2.9,5.37.97,7.3,2.9c1.93,1.93,2.9,4.37,2.9,7.3v49.2c0,7.47,1.4,13.63,4.2,18.5,2.8,4.87,6.6,8.47,11.4,10.8,4.8,2.33,10.2,3.5,16.2,3.5s10.83-1.13,15.3-3.4c4.47-2.27,8.03-5.33,10.7-9.2,2.67-3.87,4-8.2,4-13h12.6c0,8.27-2.03,15.73-6.1,22.4-4.07,6.67-9.6,11.93-16.6,15.8-7,3.87-14.97,5.8-23.9,5.8Z"/>
          </g>
          <g>
            <path class="cls-3" d="m235.67,158.4c-2.93,0-5.37-.97-7.3-2.9-1.93-1.93-2.9-4.37-2.9-7.3v-49.2c0-7.6-1.4-13.8-4.2-18.6-2.8-4.8-6.57-8.37-11.3-10.7-4.73-2.33-10.17-3.5-16.3-3.5-5.6,0-10.67,1.13-15.2,3.4-4.53,2.27-8.13,5.3-10.8,9.1-2.67,3.8-4,8.17-4,13.1h-12.6c0-8.4,2.03-15.9,6.1-22.5,4.07-6.6,9.63-11.83,16.7-15.7,7.07-3.87,15-5.8,23.8-5.8s17.43,1.97,24.7,5.9c7.27,3.93,13,9.7,17.2,17.3,4.2,7.6,6.3,16.93,6.3,28v49.2c0,2.93-.97,5.37-2.9,7.3s-4.37,2.9-7.3,2.9Z"/>
            <path class="cls-3" d="m377.17,75.2c-4.87-8.4-11.43-15.03-19.7-19.9-8.27-4.86-17.6-7.3-28-7.3s-19.77,2.44-28.1,7.3c-8.33,4.87-14.93,11.5-19.8,19.9-4.87,8.4-7.3,17.87-7.3,28.4s2.23,19.97,6.7,28.3c4.47,8.34,10.57,14.94,18.3,19.8,7.73,4.87,16.47,7.3,26.2,7.3s18.47-2.43,26.2-7.3c4.76-2.99,8.89-6.64,12.4-10.94v7.44c0,2.94.97,5.37,2.9,7.3,1.93,1.94,4.37,2.9,7.3,2.9s5.37-.96,7.3-2.9c1.93-1.93,2.9-4.36,2.9-7.3v-44.6c0-10.53-2.43-20-7.3-28.4Zm-16.9,47.5c-3.07,5.67-7.27,10.14-12.6,13.4-5.33,3.27-11.4,4.9-18.2,4.9s-12.7-1.63-18.1-4.9c-5.4-3.26-9.67-7.73-12.8-13.4-3.13-5.66-4.7-12.03-4.7-19.1s1.57-13.63,4.7-19.3c3.13-5.66,7.4-10.13,12.8-13.4,5.4-3.26,11.43-4.9,18.1-4.9s12.87,1.64,18.2,4.9c5.33,3.27,9.53,7.74,12.6,13.4,3.07,5.67,4.6,12.1,4.6,19.3s-1.53,13.44-4.6,19.1Z"/>
            <path class="cls-3" d="m464.47,159c-10.4,0-19.77-2.43-28.1-7.3-8.33-4.87-14.93-11.5-19.8-19.9-4.87-8.4-7.3-17.87-7.3-28.4s2.23-19.97,6.7-28.3c4.47-8.33,10.57-14.93,18.3-19.8,7.73-4.87,16.46-7.3,26.2-7.3,7.87,0,15.13,1.63,21.8,4.9,6.67,3.27,12.27,7.7,16.8,13.3V12.2c0-3.07.97-5.53,2.9-7.4,1.93-1.87,4.37-2.8,7.3-2.8s5.53.93,7.4,2.8c1.87,1.87,2.8,4.33,2.8,7.4v91.2c0,10.53-2.43,20-7.3,28.4-4.87,8.4-11.43,15.03-19.7,19.9-8.27,4.87-17.6,7.3-28,7.3Zm0-18c6.8,0,12.87-1.63,18.2-4.9,5.33-3.27,9.53-7.77,12.6-13.5,3.07-5.73,4.6-12.13,4.6-19.2s-1.53-13.6-4.6-19.2c-3.07-5.6-7.27-10.03-12.6-13.3-5.33-3.27-11.4-4.9-18.2-4.9s-12.7,1.63-18.1,4.9c-5.4,3.27-9.67,7.7-12.8,13.3-3.13,5.6-4.7,12-4.7,19.2s1.57,13.47,4.7,19.2c3.13,5.73,7.4,10.23,12.8,13.5,5.4,3.27,11.43,4.9,18.1,4.9Z"/>
          </g>
          <path class="cls-4" d="m154.07,156.47c-2.93,0-5.37-1.3-7.3-3.9-1.93-2.6-2.9-5.87-2.9-9.81V13.74c0-4.12.97-7.43,2.9-9.95,1.93-2.51,4.37-3.76,7.3-3.76s5.53,1.26,7.4,3.76c1.87,2.51,2.8,5.83,2.8,9.95v129.02c0,3.94-.93,7.22-2.8,9.81-1.87,2.6-4.33,3.9-7.4,3.9Z"/>
        </g>
        <g>
          <path class="cls-1" d="m584.07,45.42h-31.89v-4.17h68.54v4.17h-31.89v94.17h-4.77V45.42Z"/>
          <path class="cls-1" d="m624.59,104.13c0-23.25,14.9-37.55,30.69-37.55s26.82,11.62,26.82,32.78c0,1.49,0,2.98-.3,4.77h-52.45c0,19.07,11.03,33.08,28.01,33.08,8.05,0,14.3-2.68,19.67-6.56l2.09,3.88c-5.36,3.28-11.32,6.85-22.05,6.85-17.88,0-32.48-14.01-32.48-37.25Zm53.04-4.17c0-19.67-8.94-29.2-22.35-29.2s-24.44,11.03-25.93,29.2h48.28Z"/>
          <path class="cls-1" d="m695.82,104.13c0-23.84,14.9-37.55,31.89-37.55,9.83,0,16.09,4.47,20.86,8.94l-2.98,3.28c-4.77-4.47-10.43-8.05-17.88-8.05-15.2,0-27.12,13.71-27.12,33.38s10.73,33.08,27.12,33.08c8.05,0,14.9-3.88,19.97-8.64l2.68,3.28c-5.96,5.36-13.41,9.54-22.65,9.54-18.18,0-31.89-13.71-31.89-37.25Z"/>
          <path class="cls-1" d="m768.53,32.01h4.47v47.98c7.75-7.75,15.2-13.41,25.03-13.41,14.6,0,21.46,8.64,21.46,27.12v45.89h-4.47v-45.3c0-15.79-5.07-23.54-17.28-23.54-8.94,0-15.5,4.77-24.73,14.3v54.53h-4.47V32.01Z"/>
          <path class="cls-1" d="m846.3,68.37h3.87l.6,11.32h.3c7.45-7.45,14.9-13.11,24.73-13.11,14.6,0,21.46,8.64,21.46,27.12v45.89h-4.47v-45.3c0-15.79-5.07-23.54-17.28-23.54-8.94,0-15.5,4.77-24.73,14.3v54.53h-4.47v-71.22Z"/>
          <path class="cls-1" d="m918.42,104.13c0-23.84,14.6-37.55,31.59-37.55s31.59,13.71,31.59,37.55-14.6,37.25-31.59,37.25-31.59-13.71-31.59-37.25Zm58.41,0c0-19.67-11.62-33.38-26.82-33.38s-26.82,13.71-26.82,33.38,11.62,33.08,26.82,33.08,26.82-13.41,26.82-33.08Z"/>
          <path class="cls-1" d="m1003.94,131.84V32.01h4.47v100.72c0,2.98,1.19,4.47,2.98,4.47.6,0,1.19,0,2.68-.3l.89,3.88c-1.19.3-2.09.6-3.87.6-4.47,0-7.15-2.68-7.15-9.54Z"/>
          <path class="cls-1" d="m1031.96,104.13c0-23.84,14.6-37.55,31.59-37.55s31.59,13.71,31.59,37.55-14.6,37.25-31.59,37.25-31.59-13.71-31.59-37.25Zm58.41,0c0-19.67-11.62-33.38-26.82-33.38s-26.82,13.71-26.82,33.38,11.62,33.08,26.82,33.08,26.82-13.41,26.82-33.08Z"/>
          <path class="cls-1" d="m1111.22,154.49c0-6.26,4.17-12.81,10.73-17.58v-.6c-3.58-2.09-6.26-5.96-6.26-11.32,0-6.56,4.77-11.03,7.75-13.11v-.6c-4.47-3.87-8.94-11.03-8.94-19.67,0-14.3,10.73-25.03,24.44-25.03,3.87,0,7.15.89,9.24,1.79h23.84v4.17h-17.28c5.07,4.17,8.64,11.03,8.64,19.07,0,14.3-10.73,25.33-24.44,25.33-4.17,0-8.94-1.19-12.22-3.28-3.28,2.68-6.26,5.96-6.26,11.03,0,5.36,2.98,9.83,14.01,9.83h15.79c15.79,0,22.95,5.07,22.95,16.09,0,11.92-12.81,23.84-32.78,23.84-18.18,0-29.21-8.05-29.21-19.97Zm57.22-3.58c0-8.34-5.96-11.62-17.28-11.62h-16.39c-.89,0-4.77-.3-8.64-1.19-7.15,4.77-10.13,10.73-10.13,16.09,0,9.54,8.94,16.09,24.73,16.09,16.99,0,27.71-9.83,27.71-19.37Zm-9.83-59.3c0-12.67-8.94-20.86-19.67-20.86s-19.67,8.05-19.67,20.86,9.24,21.16,19.67,21.16,19.67-8.64,19.67-21.16Z"/>
          <path class="cls-1" d="m1186.32,45.12c0-3.28,2.38-5.07,5.07-5.07s5.07,1.79,5.07,5.07c0,2.98-2.38,5.07-5.07,5.07s-5.07-2.09-5.07-5.07Zm2.68,23.24h4.47v71.22h-4.47v-71.22Z"/>
          <path class="cls-1" d="m1215.82,104.13c0-23.25,14.9-37.55,30.69-37.55s26.82,11.62,26.82,32.78c0,1.49,0,2.98-.3,4.77h-52.45c0,19.07,11.03,33.08,28.01,33.08,8.05,0,14.3-2.68,19.67-6.56l2.09,3.88c-5.36,3.28-11.32,6.85-22.05,6.85-17.88,0-32.48-14.01-32.48-37.25Zm53.04-4.17c0-19.67-8.94-29.2-22.35-29.2s-24.44,11.03-25.93,29.2h48.28Z"/>
          <path class="cls-1" d="m1284.06,131.54l2.98-3.58c5.96,5.07,12.52,9.24,23.24,9.24,11.92,0,18.18-7.15,18.18-15.2,0-9.54-9.54-13.71-17.88-16.69-11.03-3.87-23.25-8.05-23.25-20.26,0-9.83,7.75-18.48,22.35-18.48,7.15,0,14.6,2.98,19.67,7.15l-2.68,3.58c-4.77-3.58-9.83-6.56-17.28-6.56-11.92,0-17.28,7-17.28,14.01,0,8.64,8.64,11.92,17.28,15.2,11.32,4.32,23.84,7.75,23.84,21.75,0,10.43-8.34,19.67-23.24,19.67-10.73,0-19.67-4.47-25.93-9.83Z"/>
        </g>
      </g>
    </g>
  </g>
</svg>