<svg width="4855" height="1001" viewBox="0 0 4855 1001" fill="none" xmlns="http://www.w3.org/2000/svg">
<path d="M21.1626 420.285C15.5019 420.285 10.5488 418.339 6.30323 414.448C2.41149 410.202 0.465622 405.249 0.465622 399.588V26.5119C0.465622 20.4974 2.41149 15.5442 6.30323 11.6525C10.5488 7.76077 15.5019 5.81491 21.1626 5.81491C29.6537 5.81491 35.8451 9.35285 39.7368 16.4287L218.58 371.992H200.536L376.195 16.4287C380.441 9.35285 386.632 5.81491 394.77 5.81491C400.43 5.81491 405.206 7.76077 409.098 11.6525C412.99 15.5442 414.936 20.4974 414.936 26.5119V399.588C414.936 405.249 412.99 410.202 409.098 414.448C405.206 418.339 400.43 420.285 394.77 420.285C388.755 420.285 383.625 418.339 379.379 414.448C375.488 410.202 373.542 405.249 373.542 399.588V80.1117L382.564 80.6424L226.01 400.65C222.118 407.372 216.103 410.733 207.966 410.733C199.121 410.733 192.753 406.487 188.861 397.996L31.2457 82.7652L41.8596 80.1117V399.588C41.8596 405.249 39.7368 410.202 35.4913 414.448C31.5995 418.339 26.8233 420.285 21.1626 420.285Z" fill="white"/>
<path d="M648.146 422.939C619.842 422.939 594.546 416.57 572.257 403.834C549.968 391.097 532.455 373.584 519.718 351.295C506.982 329.006 500.614 303.71 500.614 275.406C500.614 246.749 506.982 221.276 519.718 198.987C532.455 176.698 549.968 159.185 572.257 146.448C594.546 133.712 619.842 127.343 648.146 127.343C676.449 127.343 701.569 133.712 723.504 146.448C745.793 159.185 763.306 176.698 776.042 198.987C788.779 221.276 795.324 246.749 795.678 275.406C795.678 303.71 789.133 329.006 776.042 351.295C763.306 373.584 745.793 391.097 723.504 403.834C701.569 416.57 676.449 422.939 648.146 422.939ZM648.146 385.79C668.666 385.79 687.063 381.014 703.338 371.461C719.612 361.909 732.349 348.819 741.547 332.19C750.746 315.562 755.345 296.634 755.345 275.406C755.345 254.179 750.746 235.251 741.547 218.622C732.349 201.64 719.612 188.373 703.338 178.82C687.063 169.268 668.666 164.492 648.146 164.492C627.626 164.492 609.228 169.268 592.954 178.82C576.679 188.373 563.766 201.64 554.213 218.622C545.015 235.251 540.415 254.179 540.415 275.406C540.415 296.634 545.015 315.562 554.213 332.19C563.766 348.819 576.679 361.909 592.954 371.461C609.228 381.014 627.626 385.79 648.146 385.79Z" fill="white"/>
<path d="M1007.3 422.939C979.346 422.939 954.226 416.57 931.937 403.834C909.648 390.743 891.958 373.054 878.868 350.764C866.131 328.475 859.763 303.179 859.763 274.876C859.763 246.926 865.955 221.806 878.337 199.517C891.074 177.228 908.233 159.715 929.814 146.979C951.396 133.888 975.808 127.343 1003.05 127.343C1026.75 127.343 1048.16 132.473 1067.26 142.733C1086.37 152.64 1101.76 165.907 1113.43 182.535V26.5119C1113.43 20.1436 1115.38 15.1904 1119.27 11.6525C1123.16 7.76077 1128.12 5.81491 1134.13 5.81491C1140.15 5.81491 1145.1 7.76077 1148.99 11.6525C1152.88 15.1904 1154.83 20.1436 1154.83 26.5119V276.998C1154.12 304.594 1147.22 329.537 1134.13 351.826C1121.39 373.761 1103.88 391.097 1081.59 403.834C1059.66 416.57 1034.89 422.939 1007.3 422.939ZM1007.3 385.79C1027.82 385.79 1046.04 381.014 1061.96 371.461C1078.23 361.555 1090.97 348.288 1100.17 331.66C1109.72 315.031 1114.5 296.103 1114.5 274.876C1114.5 254.002 1109.72 235.251 1100.17 218.622C1090.97 201.64 1078.23 188.373 1061.96 178.82C1046.04 169.268 1027.82 164.492 1007.3 164.492C987.129 164.492 968.909 169.268 952.634 178.82C936.36 188.373 923.446 201.64 913.894 218.622C904.341 235.251 899.565 254.002 899.565 274.876C899.565 296.103 904.341 315.031 913.894 331.66C923.446 348.288 936.36 361.555 952.634 371.461C968.909 381.014 987.129 385.79 1007.3 385.79Z" fill="white"/>
<path d="M1381.98 422.939C1353.32 422.939 1327.85 416.747 1305.56 404.364C1283.63 391.628 1266.29 374.115 1253.55 351.826C1241.17 329.537 1234.98 304.064 1234.98 275.406C1234.98 246.395 1240.82 220.922 1252.49 198.987C1264.52 176.698 1280.97 159.185 1301.85 146.448C1322.72 133.712 1346.78 127.343 1374.02 127.343C1400.91 127.343 1424.26 133.535 1444.07 145.917C1464.24 157.947 1479.8 174.752 1490.77 196.333C1501.74 217.915 1507.22 242.503 1507.22 270.099C1507.22 275.76 1505.45 280.359 1501.92 283.897C1498.38 287.081 1493.78 288.674 1488.12 288.674H1262.57V254.709H1492.36L1469.54 271.161C1469.9 250.641 1466.18 232.243 1458.4 215.969C1450.62 199.694 1439.47 186.958 1424.97 177.759C1410.81 168.56 1393.83 163.961 1374.02 163.961C1353.85 163.961 1336.16 168.737 1320.95 178.29C1305.74 187.842 1293.89 201.109 1285.39 218.092C1277.26 234.72 1273.19 253.825 1273.19 275.406C1273.19 296.988 1277.79 316.093 1286.99 332.721C1296.54 349.349 1309.45 362.44 1325.73 371.992C1342 381.545 1360.75 386.321 1381.98 386.321C1394.72 386.321 1407.45 384.198 1420.19 379.953C1433.28 375.353 1443.72 369.692 1451.5 362.97C1455.39 359.786 1459.82 358.194 1464.77 358.194C1469.72 357.84 1473.97 359.079 1477.5 361.909C1482.1 366.155 1484.4 370.754 1484.4 375.707C1484.76 380.66 1482.81 384.906 1478.57 388.444C1466.89 398.35 1452.03 406.664 1433.99 413.386C1415.94 419.754 1398.61 422.939 1381.98 422.939Z" fill="white"/>
<path d="M1593.33 241.442C1594.39 219.507 1600.05 199.871 1610.31 182.535C1620.93 165.199 1634.55 151.578 1651.18 141.672C1668.16 131.766 1686.91 126.813 1707.43 126.813C1723.71 126.813 1736.27 129.112 1745.11 133.712C1753.96 138.311 1757.32 145.033 1755.19 153.878C1753.78 159.185 1751.3 162.723 1747.76 164.492C1744.58 166.261 1740.51 166.968 1735.56 166.614C1730.96 166.261 1725.65 165.907 1719.64 165.553C1699.82 163.784 1682.13 165.907 1666.57 171.921C1651.35 177.582 1639.15 186.427 1629.95 198.456C1621.11 210.485 1616.68 224.814 1616.68 241.442H1593.33ZM1596.52 420.285C1590.15 420.285 1585.2 418.516 1581.66 414.978C1578.12 411.44 1576.35 406.487 1576.35 400.119V150.163C1576.35 143.795 1578.12 138.842 1581.66 135.304C1585.2 131.766 1590.15 129.997 1596.52 129.997C1602.88 129.997 1607.84 131.766 1611.38 135.304C1614.91 138.842 1616.68 143.795 1616.68 150.163V400.119C1616.68 406.487 1614.91 411.44 1611.38 414.978C1607.84 418.516 1602.88 420.285 1596.52 420.285Z" fill="white"/>
<path d="M2068.31 420.285C2062.29 420.285 2057.34 418.339 2053.45 414.448C2049.55 410.556 2047.61 405.779 2047.61 400.119V262.139C2047.61 240.204 2043.36 222.16 2034.87 208.008C2026.73 193.857 2015.41 183.243 2000.91 176.167C1986.76 169.091 1970.66 165.553 1952.61 165.553C1935.28 165.553 1919.53 168.914 1905.38 175.636C1891.59 182.358 1880.62 191.557 1872.48 203.232C1864.34 214.907 1860.27 228.175 1860.27 243.034H1831.09C1831.79 220.745 1837.81 200.933 1849.13 183.597C1860.45 165.907 1875.49 152.109 1894.24 142.203C1912.99 131.943 1933.86 126.813 1956.86 126.813C1981.98 126.813 2004.45 132.12 2024.26 142.733C2044.07 152.993 2059.64 168.207 2070.96 188.373C2082.63 208.539 2088.47 233.128 2088.47 262.139V400.119C2088.47 405.779 2086.53 410.556 2082.63 414.448C2078.74 418.339 2073.97 420.285 2068.31 420.285ZM1840.11 420.285C1833.74 420.285 1828.61 418.516 1824.72 414.978C1821.18 411.086 1819.41 406.133 1819.41 400.119V150.694C1819.41 144.325 1821.18 139.372 1824.72 135.834C1828.61 131.943 1833.74 129.997 1840.11 129.997C1846.12 129.997 1850.9 131.943 1854.44 135.834C1858.33 139.372 1860.27 144.325 1860.27 150.694V400.119C1860.27 406.133 1858.33 411.086 1854.44 414.978C1850.9 418.516 1846.12 420.285 1840.11 420.285Z" fill="white"/>
<path d="M2466.71 425.592C2444.07 425.592 2423.02 422.408 2403.56 416.04C2384.45 409.317 2367.82 399.942 2353.67 387.913C2339.52 375.884 2328.73 361.909 2321.3 345.988C2318.47 340.328 2318.29 335.198 2320.77 330.598C2323.6 325.645 2328.2 322.284 2334.57 320.515C2339.52 319.1 2344.3 319.631 2348.9 322.107C2353.85 324.584 2357.56 328.299 2360.04 333.252C2365.35 343.512 2373.13 352.71 2383.39 360.848C2393.65 368.985 2405.86 375.353 2420.01 379.953C2434.16 384.198 2449.73 386.321 2466.71 386.321C2485.46 386.321 2502.09 383.314 2516.6 377.299C2531.1 370.931 2542.42 361.909 2550.56 350.234C2559.05 338.205 2563.3 323.699 2563.3 306.717C2563.3 285.136 2555.34 266.561 2539.41 250.994C2523.49 235.428 2498.55 225.521 2464.59 221.276C2423.19 216.323 2390.82 203.586 2367.47 183.066C2344.12 162.192 2332.44 136.719 2332.44 106.646C2332.44 85.0649 2338.11 66.3138 2349.43 50.393C2361.1 34.4722 2377.02 22.2663 2397.19 13.7753C2417.36 4.93042 2440.53 0.507996 2466.71 0.507996C2486.17 0.507996 2503.86 3.69214 2519.78 10.0604C2535.7 16.0749 2549.5 24.2122 2561.17 34.4722C2573.2 44.3785 2582.93 55.3461 2590.36 67.3751C2593.9 73.0358 2594.96 78.5197 2593.55 83.8266C2592.48 89.1335 2589.48 93.2021 2584.52 96.0325C2579.22 98.509 2573.73 98.8628 2568.07 97.0939C2562.77 95.3249 2558.7 91.9639 2555.87 87.0107C2550.56 78.8735 2543.84 71.2669 2535.7 64.191C2527.92 56.7613 2518.36 50.9237 2507.04 46.6781C2495.72 42.4326 2482.1 40.133 2466.18 39.7792C2438.23 39.7792 2415.76 45.7937 2398.78 57.8227C2381.8 69.4979 2373.31 86.6569 2373.31 109.3C2373.31 121.329 2376.49 132.473 2382.86 142.733C2389.23 152.64 2399.67 161.308 2414.17 168.737C2429.03 175.813 2448.84 181.12 2473.61 184.658C2517.83 191.026 2550.56 204.647 2571.79 225.521C2593.37 246.041 2604.16 272.93 2604.16 306.186C2604.16 325.291 2600.62 342.273 2593.55 357.133C2586.82 371.992 2577.09 384.552 2564.36 394.812C2551.97 404.718 2537.29 412.325 2520.31 417.632C2503.68 422.939 2485.81 425.592 2466.71 425.592Z" fill="white"/>
<path d="M2817.56 422.939C2789.25 422.939 2763.96 416.57 2741.67 403.834C2719.38 391.097 2701.86 373.584 2689.13 351.295C2676.39 329.006 2670.02 303.71 2670.02 275.406C2670.02 246.749 2676.39 221.276 2689.13 198.987C2701.86 176.698 2719.38 159.185 2741.67 146.448C2763.96 133.712 2789.25 127.343 2817.56 127.343C2845.86 127.343 2870.98 133.712 2892.91 146.448C2915.2 159.185 2932.72 176.698 2945.45 198.987C2958.19 221.276 2964.73 246.749 2965.09 275.406C2965.09 303.71 2958.54 329.006 2945.45 351.295C2932.72 373.584 2915.2 391.097 2892.91 403.834C2870.98 416.57 2845.86 422.939 2817.56 422.939ZM2817.56 385.79C2838.08 385.79 2856.47 381.014 2872.75 371.461C2889.02 361.909 2901.76 348.819 2910.96 332.19C2920.16 315.562 2924.75 296.634 2924.75 275.406C2924.75 254.179 2920.16 235.251 2910.96 218.622C2901.76 201.64 2889.02 188.373 2872.75 178.82C2856.47 169.268 2838.08 164.492 2817.56 164.492C2797.04 164.492 2778.64 169.268 2762.36 178.82C2746.09 188.373 2733.18 201.64 2723.62 218.622C2714.42 235.251 2709.82 254.179 2709.82 275.406C2709.82 296.634 2714.42 315.562 2723.62 332.19C2733.18 348.819 2746.09 361.909 2762.36 371.461C2778.64 381.014 2797.04 385.79 2817.56 385.79Z" fill="white"/>
<path d="M3107.18 420.285C3093.03 420.285 3080.3 416.393 3068.97 408.61C3058.01 400.826 3049.34 390.036 3042.97 376.238C3036.96 362.44 3033.95 346.519 3033.95 328.475V25.9812C3033.95 19.9667 3035.72 15.1904 3039.26 11.6525C3043.15 7.76077 3048.1 5.81491 3054.12 5.81491C3060.13 5.81491 3064.91 7.76077 3068.44 11.6525C3072.34 15.1904 3074.28 19.9667 3074.28 25.9812V328.475C3074.28 343.689 3077.29 356.071 3083.3 365.624C3089.67 375.176 3097.63 379.953 3107.18 379.953H3120.45C3125.76 379.953 3130 381.898 3133.19 385.79C3136.37 389.328 3137.96 394.104 3137.96 400.119C3137.96 406.133 3135.67 411.086 3131.07 414.978C3126.82 418.516 3121.16 420.285 3114.08 420.285H3107.18Z" fill="white"/>
<path d="M3320.64 423.469C3295.52 423.469 3273.06 418.339 3253.24 408.079C3233.43 397.465 3217.69 382.075 3206.01 361.909C3194.69 341.743 3189.03 317.154 3189.03 288.143V150.163C3189.03 144.502 3190.98 139.726 3194.87 135.834C3198.76 131.943 3203.54 129.997 3209.2 129.997C3215.21 129.997 3220.17 131.943 3224.06 135.834C3227.95 139.726 3229.89 144.502 3229.89 150.163V288.143C3229.89 310.078 3233.96 328.122 3242.1 342.273C3250.59 356.425 3261.91 367.039 3276.06 374.115C3290.57 381.191 3306.84 384.729 3324.89 384.729C3342.22 384.729 3357.79 381.368 3371.59 374.646C3385.74 367.924 3396.89 358.725 3405.02 347.05C3413.16 335.374 3417.23 322.107 3417.23 307.248H3446.42C3445.36 329.537 3439.16 349.526 3427.84 367.216C3416.87 384.552 3402.02 398.35 3383.26 408.61C3364.51 418.516 3343.64 423.469 3320.64 423.469ZM3437.4 420.285C3431.38 420.285 3426.43 418.516 3422.54 414.978C3419 411.086 3417.23 405.956 3417.23 399.588V150.163C3417.23 144.149 3419 139.372 3422.54 135.834C3426.43 131.943 3431.38 129.997 3437.4 129.997C3443.41 129.997 3448.36 131.943 3452.25 135.834C3456.15 139.372 3458.09 144.149 3458.09 150.163V399.588C3458.09 405.956 3456.15 411.086 3452.25 414.978C3448.36 418.516 3443.41 420.285 3437.4 420.285Z" fill="white"/>
<path d="M3667.06 420.285C3648.3 420.285 3631.5 415.863 3616.64 407.018C3602.13 398.173 3590.64 386.144 3582.15 370.931C3573.65 355.364 3569.41 337.674 3569.41 317.862V58.3534C3569.41 52.3389 3571.18 47.3857 3574.72 43.494C3578.61 39.6023 3583.56 37.6564 3589.57 37.6564C3595.59 37.6564 3600.54 39.6023 3604.43 43.494C3608.33 47.3857 3610.27 52.3389 3610.27 58.3534V317.862C3610.27 335.905 3615.58 350.764 3626.19 362.44C3636.81 373.761 3650.43 379.422 3667.06 379.422H3681.38C3687.05 379.422 3691.64 381.368 3695.18 385.259C3698.72 389.151 3700.49 394.104 3700.49 400.119C3700.49 406.133 3698.37 411.086 3694.12 414.978C3689.88 418.516 3684.57 420.285 3678.2 420.285H3667.06ZM3534.91 176.167C3529.61 176.167 3525.18 174.575 3521.65 171.391C3518.11 167.853 3516.34 163.607 3516.34 158.654C3516.34 153.347 3518.11 149.102 3521.65 145.917C3525.18 142.38 3529.61 140.611 3534.91 140.611H3670.24C3675.55 140.611 3679.97 142.38 3683.51 145.917C3687.04 149.102 3688.81 153.347 3688.81 158.654C3688.81 163.607 3687.04 167.853 3683.51 171.391C3679.97 174.575 3675.55 176.167 3670.24 176.167H3534.91Z" fill="white"/>
<path d="M3796.2 420.285C3789.83 420.285 3784.7 418.516 3780.81 414.978C3777.27 411.086 3775.5 405.956 3775.5 399.588V150.694C3775.5 144.325 3777.27 139.372 3780.81 135.834C3784.7 131.943 3789.83 129.997 3796.2 129.997C3802.21 129.997 3806.99 131.943 3810.53 135.834C3814.42 139.372 3816.36 144.325 3816.36 150.694V399.588C3816.36 405.956 3814.42 411.086 3810.53 414.978C3806.99 418.516 3802.21 420.285 3796.2 420.285ZM3795.67 74.8048C3787.88 74.8048 3781.16 71.9745 3775.5 66.3137C3769.84 60.653 3767.01 53.754 3767.01 45.6168C3767.01 36.7719 3769.84 29.8729 3775.5 24.9198C3781.51 19.6129 3788.41 16.9594 3796.2 16.9594C3803.63 16.9594 3810.17 19.6129 3815.83 24.9198C3821.85 29.8729 3824.85 36.7719 3824.85 45.6168C3824.85 53.754 3822.02 60.653 3816.36 66.3137C3810.7 71.9745 3803.8 74.8048 3795.67 74.8048Z" fill="white"/>
<path d="M4052.55 422.939C4024.25 422.939 3998.95 416.57 3976.66 403.834C3954.38 391.097 3936.86 373.584 3924.13 351.295C3911.39 329.006 3905.02 303.71 3905.02 275.406C3905.02 246.749 3911.39 221.276 3924.13 198.987C3936.86 176.698 3954.38 159.185 3976.66 146.448C3998.95 133.712 4024.25 127.343 4052.55 127.343C4080.86 127.343 4105.98 133.712 4127.91 146.448C4150.2 159.185 4167.71 176.698 4180.45 198.987C4193.19 221.276 4199.73 246.749 4200.09 275.406C4200.09 303.71 4193.54 329.006 4180.45 351.295C4167.71 373.584 4150.2 391.097 4127.91 403.834C4105.98 416.57 4080.86 422.939 4052.55 422.939ZM4052.55 385.79C4073.07 385.79 4091.47 381.014 4107.75 371.461C4124.02 361.909 4136.76 348.819 4145.96 332.19C4155.15 315.562 4159.75 296.634 4159.75 275.406C4159.75 254.179 4155.15 235.251 4145.96 218.622C4136.76 201.64 4124.02 188.373 4107.75 178.82C4091.47 169.268 4073.07 164.492 4052.55 164.492C4032.03 164.492 4013.64 169.268 3997.36 178.82C3981.09 188.373 3968.17 201.64 3958.62 218.622C3949.42 235.251 3944.82 254.179 3944.82 275.406C3944.82 296.634 3949.42 315.562 3958.62 332.19C3968.17 348.819 3981.09 361.909 3997.36 371.461C4013.64 381.014 4032.03 385.79 4052.55 385.79Z" fill="white"/>
<path d="M4528.46 420.285C4522.44 420.285 4517.49 418.339 4513.6 414.448C4509.7 410.556 4507.76 405.779 4507.76 400.119V262.139C4507.76 240.204 4503.51 222.16 4495.02 208.008C4486.88 193.857 4475.56 183.243 4461.06 176.167C4446.91 169.091 4430.81 165.553 4412.76 165.553C4395.43 165.553 4379.68 168.914 4365.53 175.636C4351.74 182.358 4340.77 191.557 4332.63 203.232C4324.49 214.907 4320.42 228.175 4320.42 243.034H4291.24C4291.94 220.745 4297.96 200.933 4309.28 183.597C4320.6 165.907 4335.64 152.109 4354.39 142.203C4373.14 131.943 4394.01 126.813 4417.01 126.813C4442.13 126.813 4464.6 132.12 4484.41 142.733C4504.22 152.993 4519.79 168.207 4531.11 188.373C4542.78 208.539 4548.62 233.128 4548.62 262.139V400.119C4548.62 405.779 4546.68 410.556 4542.78 414.448C4538.89 418.339 4534.12 420.285 4528.46 420.285ZM4300.26 420.285C4293.89 420.285 4288.76 418.516 4284.87 414.978C4281.33 411.086 4279.56 406.133 4279.56 400.119V150.694C4279.56 144.325 4281.33 139.372 4284.87 135.834C4288.76 131.943 4293.89 129.997 4300.26 129.997C4306.27 129.997 4311.05 131.943 4314.59 135.834C4318.48 139.372 4320.42 144.325 4320.42 150.694V400.119C4320.42 406.133 4318.48 411.086 4314.59 414.978C4311.05 418.516 4306.27 420.285 4300.26 420.285Z" fill="white"/>
<path d="M4740.07 422.939C4719.2 422.939 4698.5 419.401 4677.98 412.325C4657.46 405.249 4640.83 394.635 4628.1 380.483C4624.2 376.238 4622.61 371.461 4623.32 366.155C4624.03 360.848 4626.68 356.248 4631.28 352.357C4636.23 348.819 4641.36 347.403 4646.67 348.111C4651.98 348.819 4656.4 351.118 4659.94 355.01C4668.43 364.916 4679.57 372.523 4693.37 377.83C4707.52 383.137 4723.09 385.79 4740.07 385.79C4766.25 385.79 4785.18 381.368 4796.86 372.523C4808.53 363.324 4814.55 352.357 4814.9 339.62C4814.9 326.883 4808.89 316.446 4796.86 308.309C4784.83 299.818 4765.02 293.273 4737.42 288.674C4701.69 283.013 4675.51 273.107 4658.88 258.955C4642.25 244.803 4633.93 227.998 4633.93 208.539C4633.93 190.496 4638.71 175.459 4648.26 163.43C4657.82 151.401 4670.55 142.38 4686.47 136.365C4702.39 130.351 4719.91 127.343 4739.01 127.343C4762.72 127.343 4783.06 131.412 4800.04 139.549C4817.38 147.686 4831.35 158.654 4841.97 172.452C4845.5 177.051 4846.92 181.828 4846.21 186.781C4845.5 191.734 4842.67 195.803 4837.72 198.987C4833.47 201.463 4828.52 202.348 4822.86 201.64C4817.55 200.579 4812.95 197.925 4809.06 193.68C4800.22 183.42 4789.96 175.99 4778.28 171.391C4766.61 166.438 4753.16 163.961 4737.95 163.961C4718.49 163.961 4702.92 168.03 4691.25 176.167C4679.57 183.95 4673.74 193.857 4673.74 205.886C4673.74 214.023 4675.86 221.099 4680.1 227.113C4684.7 233.128 4692.31 238.435 4702.92 243.034C4713.89 247.633 4729.11 251.525 4748.56 254.709C4775.1 258.955 4795.97 265.323 4811.19 273.814C4826.75 281.951 4837.72 291.681 4844.09 303.002C4850.81 313.97 4854.17 325.999 4854.17 339.089C4854.17 355.718 4849.22 370.4 4839.31 383.137C4829.76 395.52 4816.32 405.249 4798.98 412.325C4782 419.401 4762.36 422.939 4740.07 422.939Z" fill="white"/>
<path d="M1163.82 1000.51C1141.18 1000.51 1120.13 997.324 1100.67 990.956C1081.56 984.233 1064.93 974.858 1050.78 962.829C1036.63 950.8 1025.84 936.825 1018.41 920.904C1015.58 915.244 1015.4 910.114 1017.88 905.514C1020.71 900.561 1025.31 897.2 1031.68 895.431C1036.63 894.016 1041.41 894.547 1046.01 897.023C1050.96 899.5 1054.67 903.214 1057.15 908.168C1062.46 918.428 1070.24 927.626 1080.5 935.764C1090.76 943.901 1102.97 950.269 1117.12 954.868C1131.27 959.114 1146.84 961.237 1163.82 961.237C1182.57 961.237 1199.2 958.23 1213.71 952.215C1228.21 945.847 1239.53 936.825 1247.67 925.15C1256.16 913.121 1260.41 898.615 1260.41 881.633C1260.41 860.052 1252.45 841.477 1236.53 825.91C1220.6 810.344 1195.66 800.437 1161.7 796.192C1120.3 791.239 1087.93 778.502 1064.58 757.982C1041.23 737.108 1029.56 711.635 1029.56 681.562C1029.56 659.981 1035.22 641.23 1046.54 625.309C1058.21 609.388 1074.13 597.182 1094.3 588.691C1114.47 579.846 1137.64 575.424 1163.82 575.424C1183.28 575.424 1200.97 578.608 1216.89 584.976C1232.81 590.991 1246.61 599.128 1258.28 609.388C1270.31 619.294 1280.04 630.262 1287.47 642.291C1291.01 647.952 1292.07 653.436 1290.66 658.743C1289.59 664.049 1286.59 668.118 1281.63 670.948C1276.33 673.425 1270.84 673.779 1265.18 672.01C1259.88 670.241 1255.81 666.88 1252.98 661.927C1247.67 653.789 1240.95 646.183 1232.81 639.107C1225.03 631.677 1215.47 625.84 1204.15 621.594C1192.83 617.349 1179.21 615.049 1163.29 614.695C1135.34 614.695 1112.87 620.71 1095.89 632.739C1078.91 644.414 1070.42 661.573 1070.42 684.216C1070.42 696.245 1073.6 707.389 1079.97 717.649C1086.34 727.556 1096.78 736.224 1111.28 743.653C1126.14 750.729 1145.95 756.036 1170.72 759.574C1214.94 765.942 1247.67 779.563 1268.9 800.437C1290.48 820.957 1301.27 847.846 1301.27 881.102C1301.27 900.207 1297.73 917.189 1290.66 932.049C1283.93 946.908 1274.2 959.468 1261.47 969.728C1249.08 979.634 1234.4 987.241 1217.42 992.548C1200.79 997.855 1182.93 1000.51 1163.82 1000.51Z" fill="white"/>
<path d="M1496.09 995.201C1477.34 995.201 1460.54 990.779 1445.68 981.934C1431.17 973.089 1419.67 961.06 1411.18 945.847C1402.69 930.28 1398.44 912.59 1398.44 892.778V633.269C1398.44 627.255 1400.21 622.302 1403.75 618.41C1407.64 614.518 1412.6 612.572 1418.61 612.572C1424.63 612.572 1429.58 614.518 1433.47 618.41C1437.36 622.302 1439.31 627.255 1439.31 633.269V892.778C1439.31 910.821 1444.61 925.68 1455.23 937.356C1465.84 948.677 1479.46 954.338 1496.09 954.338H1510.42C1516.08 954.338 1520.68 956.284 1524.22 960.175C1527.76 964.067 1529.53 969.02 1529.53 975.035C1529.53 981.049 1527.4 986.002 1523.16 989.894C1518.91 993.432 1513.6 995.201 1507.24 995.201H1496.09ZM1363.95 751.083C1358.64 751.083 1354.22 749.491 1350.68 746.307C1347.14 742.769 1345.38 738.523 1345.38 733.57C1345.38 728.263 1347.14 724.018 1350.68 720.833C1354.22 717.296 1358.64 715.527 1363.95 715.527H1499.28C1504.58 715.527 1509.01 717.296 1512.54 720.833C1516.08 724.018 1517.85 728.263 1517.85 733.57C1517.85 738.523 1516.08 742.769 1512.54 746.307C1509.01 749.491 1504.58 751.083 1499.28 751.083H1363.95Z" fill="white"/>
<path d="M1723.94 997.854C1696.7 997.854 1672.29 991.486 1650.71 978.75C1629.12 965.659 1611.96 947.969 1599.23 925.68C1586.85 903.391 1580.65 878.272 1580.65 850.322C1580.65 822.019 1587.02 796.722 1599.76 774.433C1612.85 752.144 1630.54 734.631 1652.83 721.895C1675.12 708.804 1700.24 702.259 1728.19 702.259C1756.14 702.259 1781.08 708.804 1803.01 721.895C1825.3 734.631 1842.82 752.144 1855.55 774.433C1868.64 796.722 1875.36 822.019 1875.72 850.322L1859.27 863.059C1859.27 888.532 1853.25 911.529 1841.22 932.049C1829.55 952.215 1813.45 968.313 1792.93 980.342C1772.76 992.017 1749.77 997.854 1723.94 997.854ZM1728.19 960.706C1748.71 960.706 1766.93 955.93 1782.85 946.377C1799.12 936.825 1811.86 923.735 1821.06 907.106C1830.61 890.124 1835.39 871.196 1835.39 850.322C1835.39 829.095 1830.61 810.167 1821.06 793.538C1811.86 776.91 1799.12 763.82 1782.85 754.267C1766.93 744.361 1748.71 739.408 1728.19 739.408C1708.02 739.408 1689.8 744.361 1673.52 754.267C1657.25 763.82 1644.34 776.91 1634.78 793.538C1625.23 810.167 1620.46 829.095 1620.46 850.322C1620.46 871.196 1625.23 890.124 1634.78 907.106C1644.34 923.735 1657.25 936.825 1673.52 946.377C1689.8 955.93 1708.02 960.706 1728.19 960.706ZM1855.02 995.201C1849.01 995.201 1844.05 993.432 1840.16 989.894C1836.27 986.002 1834.32 981.049 1834.32 975.035V884.287L1844.41 842.362L1875.72 850.322V975.035C1875.72 981.049 1873.77 986.002 1869.88 989.894C1865.99 993.432 1861.04 995.201 1855.02 995.201Z" fill="white"/>
<path d="M1972.18 816.358C1973.24 794.423 1978.9 774.787 1989.16 757.451C1999.77 740.115 2013.39 726.494 2030.02 716.588C2047 706.682 2065.75 701.729 2086.27 701.729C2102.55 701.729 2115.11 704.028 2123.95 708.628C2132.8 713.227 2136.16 719.949 2134.04 728.794C2132.62 734.101 2130.15 737.639 2126.61 739.408C2123.42 741.177 2119.35 741.884 2114.4 741.53C2109.8 741.177 2104.49 740.823 2098.48 740.469C2078.67 738.7 2060.98 740.823 2045.41 746.837C2030.2 752.498 2017.99 761.343 2008.79 773.372C1999.95 785.401 1995.53 799.73 1995.53 816.358H1972.18ZM1975.36 995.201C1968.99 995.201 1964.04 993.432 1960.5 989.894C1956.96 986.356 1955.19 981.403 1955.19 975.035V725.079C1955.19 718.711 1956.96 713.758 1960.5 710.22C1964.04 706.682 1968.99 704.913 1975.36 704.913C1981.73 704.913 1986.68 706.682 1990.22 710.22C1993.76 713.758 1995.53 718.711 1995.53 725.079V975.035C1995.53 981.403 1993.76 986.356 1990.22 989.894C1986.68 993.432 1981.73 995.201 1975.36 995.201Z" fill="white"/>
<path d="M2311.82 995.201C2293.07 995.201 2276.27 990.779 2261.41 981.934C2246.9 973.089 2235.4 961.06 2226.91 945.847C2218.42 930.28 2214.18 912.59 2214.18 892.778V633.269C2214.18 627.255 2215.94 622.302 2219.48 618.41C2223.37 614.518 2228.33 612.572 2234.34 612.572C2240.36 612.572 2245.31 614.518 2249.2 618.41C2253.09 622.302 2255.04 627.255 2255.04 633.269V892.778C2255.04 910.821 2260.35 925.68 2270.96 937.356C2281.57 948.677 2295.19 954.338 2311.82 954.338H2326.15C2331.81 954.338 2336.41 956.284 2339.95 960.175C2343.49 964.067 2345.26 969.02 2345.26 975.035C2345.26 981.049 2343.13 986.002 2338.89 989.894C2334.64 993.432 2329.34 995.201 2322.97 995.201H2311.82ZM2179.68 751.083C2174.37 751.083 2169.95 749.491 2166.41 746.307C2162.88 742.769 2161.11 738.523 2161.11 733.57C2161.11 728.263 2162.88 724.018 2166.41 720.833C2169.95 717.296 2174.37 715.527 2179.68 715.527H2315.01C2320.31 715.527 2324.74 717.296 2328.27 720.833C2331.81 724.018 2333.58 728.263 2333.58 733.57C2333.58 738.523 2331.81 742.769 2328.27 746.307C2324.74 749.491 2320.31 751.083 2315.01 751.083H2179.68Z" fill="white"/>
<path d="M2593.25 995.201C2587.24 995.201 2582.29 993.255 2578.4 989.363C2574.5 985.472 2572.56 980.519 2572.56 974.504V601.428C2572.56 595.413 2574.5 590.46 2578.4 586.568C2582.29 582.677 2587.24 580.731 2593.25 580.731C2599.27 580.731 2604.22 582.677 2608.11 586.568C2612.01 590.46 2613.95 595.413 2613.95 601.428V767.004H2872.93V601.428C2872.93 595.413 2874.88 590.46 2878.77 586.568C2882.66 582.677 2887.61 580.731 2893.63 580.731C2899.64 580.731 2904.59 582.677 2908.49 586.568C2912.38 590.46 2914.32 595.413 2914.32 601.428V974.504C2914.32 980.519 2912.38 985.472 2908.49 989.363C2904.59 993.255 2899.64 995.201 2893.63 995.201C2887.61 995.201 2882.66 993.255 2878.77 989.363C2874.88 985.472 2872.93 980.519 2872.93 974.504V804.152H2613.95V974.504C2613.95 980.519 2612.01 985.472 2608.11 989.363C2604.22 993.255 2599.27 995.201 2593.25 995.201Z" fill="white"/>
<path d="M3146.63 997.854C3117.98 997.854 3092.5 991.663 3070.21 979.28C3048.28 966.544 3030.94 949.031 3018.21 926.742C3005.82 904.453 2999.63 878.98 2999.63 850.322C2999.63 821.311 3005.47 795.838 3017.15 773.903C3029.17 751.614 3045.63 734.101 3066.5 721.364C3087.37 708.628 3111.43 702.259 3138.67 702.259C3165.56 702.259 3188.91 708.451 3208.72 720.833C3228.89 732.862 3244.46 749.668 3255.43 771.249C3266.39 792.831 3271.88 817.419 3271.88 845.015C3271.88 850.676 3270.11 855.275 3266.57 858.813C3263.03 861.997 3258.43 863.59 3252.77 863.59H3027.23V829.625H3257.02L3234.2 846.077C3234.55 825.557 3230.84 807.159 3223.05 790.885C3215.27 774.61 3204.13 761.874 3189.62 752.675C3175.47 743.476 3158.49 738.877 3138.67 738.877C3118.51 738.877 3100.82 743.653 3085.6 753.206C3070.39 762.758 3058.54 776.025 3050.05 793.008C3041.91 809.636 3037.84 828.741 3037.84 850.322C3037.84 871.904 3042.44 891.009 3051.64 907.637C3061.19 924.265 3074.11 937.356 3090.38 946.908C3106.66 956.461 3125.41 961.237 3146.63 961.237C3159.37 961.237 3172.11 959.114 3184.84 954.868C3197.93 950.269 3208.37 944.608 3216.15 937.886C3220.05 934.702 3224.47 933.11 3229.42 933.11C3234.38 932.756 3238.62 933.995 3242.16 936.825C3246.76 941.071 3249.06 945.67 3249.06 950.623C3249.41 955.576 3247.47 959.822 3243.22 963.36C3231.54 973.266 3216.69 981.58 3198.64 988.302C3180.6 994.67 3163.26 997.854 3146.63 997.854Z" fill="white"/>
<path d="M3357.99 816.358C3359.05 794.423 3364.71 774.787 3374.97 757.451C3385.58 740.115 3399.2 726.494 3415.83 716.588C3432.81 706.682 3451.56 701.729 3472.08 701.729C3488.36 701.729 3500.92 704.028 3509.76 708.628C3518.61 713.227 3521.97 719.949 3519.85 728.794C3518.43 734.101 3515.96 737.639 3512.42 739.408C3509.23 741.177 3505.16 741.884 3500.21 741.53C3495.61 741.177 3490.3 740.823 3484.29 740.469C3464.48 738.7 3446.79 740.823 3431.22 746.837C3416.01 752.498 3403.8 761.343 3394.6 773.372C3385.76 785.401 3381.34 799.73 3381.34 816.358H3357.99ZM3361.17 995.201C3354.8 995.201 3349.85 993.432 3346.31 989.894C3342.77 986.356 3341 981.403 3341 975.035V725.079C3341 718.711 3342.77 713.758 3346.31 710.22C3349.85 706.682 3354.8 704.913 3361.17 704.913C3367.54 704.913 3372.49 706.682 3376.03 710.22C3379.57 713.758 3381.34 718.711 3381.34 725.079V975.035C3381.34 981.403 3379.57 986.356 3376.03 989.894C3372.49 993.432 3367.54 995.201 3361.17 995.201Z" fill="white"/>
<path d="M3694.43 997.854C3665.77 997.854 3640.3 991.663 3618.01 979.28C3596.07 966.544 3578.74 949.031 3566 926.742C3553.62 904.453 3547.43 878.98 3547.43 850.322C3547.43 821.311 3553.26 795.838 3564.94 773.903C3576.97 751.614 3593.42 734.101 3614.29 721.364C3635.17 708.628 3659.23 702.259 3686.47 702.259C3713.36 702.259 3736.71 708.451 3756.52 720.833C3776.69 732.862 3792.25 749.668 3803.22 771.249C3814.19 792.831 3819.67 817.419 3819.67 845.015C3819.67 850.676 3817.9 855.275 3814.36 858.813C3810.83 861.997 3806.23 863.59 3800.57 863.59H3575.02V829.625H3804.81L3781.99 846.077C3782.35 825.557 3778.63 807.159 3770.85 790.885C3763.06 774.61 3751.92 761.874 3737.41 752.675C3723.26 743.476 3706.28 738.877 3686.47 738.877C3666.3 738.877 3648.61 743.653 3633.4 753.206C3618.19 762.758 3606.33 776.025 3597.84 793.008C3589.7 809.636 3585.64 828.741 3585.64 850.322C3585.64 871.904 3590.24 891.009 3599.43 907.637C3608.99 924.265 3621.9 937.356 3638.17 946.908C3654.45 956.461 3673.2 961.237 3694.43 961.237C3707.16 961.237 3719.9 959.114 3732.64 954.868C3745.73 950.269 3756.17 944.608 3763.95 937.886C3767.84 934.702 3772.26 933.11 3777.22 933.11C3782.17 932.756 3786.41 933.995 3789.95 936.825C3794.55 941.071 3796.85 945.67 3796.85 950.623C3797.21 955.576 3795.26 959.822 3791.01 963.36C3779.34 973.266 3764.48 981.58 3746.44 988.302C3728.39 994.67 3711.06 997.854 3694.43 997.854Z" fill="white"/>
</svg>
